<svg fill="none" height="911" viewBox="0 0 1314 911" width="1314" xmlns="http://www.w3.org/2000/svg" xmlns:xlink="http://www.w3.org/1999/xlink"><linearGradient id="a"><stop offset="0" stop-color="#a7a7a7"/><stop offset="1" stop-color="#e9e9e9"/></linearGradient><linearGradient id="b" gradientUnits="userSpaceOnUse" x1="1987.31" x2="-49.1101" xlink:href="#a" y1="2342.95" y2="1055.68"/><linearGradient id="c" gradientUnits="userSpaceOnUse" x1="2045.13" x2="352.895" xlink:href="#a" y1="1942.27" y2="872.564"/><g opacity=".2"><path d="m1815.29 435.283c-415.75-261.437-990.512-95.507-1283.733 370.783-293.22 466.294-193.757 1056.194 221.992 1317.634 415.751 261.44 990.511 95.51 1283.731-370.78s193.76-1056.199-221.99-1317.637z" stroke="url(#b)"/><path d="m1902.14 357.096c-345.44-217.221-823.01-79.36-1066.647 308.089-243.642 387.445-160.989 877.595 184.447 1094.815 345.43 217.22 823 79.36 1066.64-308.08 243.64-387.45 160.99-877.602-184.44-1094.824z" stroke="url(#c)"/></g></svg>