<svg width="112" height="32" viewBox="0 0 112 32" fill="none" xmlns="http://www.w3.org/2000/svg">
<g clip-path="url(#clip0_5011_46979)">
<path d="M11.8275 6.50195V8.79093H5.75969C5.34299 8.79093 4.94913 8.87084 4.57239 9.02496C4.20136 9.17908 3.87599 9.396 3.59629 9.6757C3.31659 9.9554 3.09968 10.2808 2.94556 10.6518C2.79144 11.0228 2.71152 11.4224 2.71152 11.8391C2.71152 12.2558 2.79144 12.6439 2.94556 13.0093C3.09968 13.3746 3.31659 13.6942 3.59629 13.9739C3.87599 14.2536 4.20136 14.4706 4.57239 14.6247C4.94342 14.7788 5.34299 14.8587 5.75969 14.8587H7.3751C8.10574 14.8587 8.79643 14.9957 9.44716 15.2754C10.0979 15.5551 10.663 15.9376 11.1368 16.4228C11.6163 16.9079 11.993 17.4788 12.267 18.1295C12.5467 18.7802 12.6837 19.4709 12.6837 20.2016C12.6837 20.9322 12.5467 21.6229 12.267 22.2736C11.9873 22.9244 11.6106 23.4895 11.1368 23.9632C10.6573 24.4427 10.0979 24.8195 9.44716 25.0935C8.79643 25.3732 8.10574 25.5102 7.3751 25.5102H1.27877V23.244H7.36939C7.78609 23.244 8.17995 23.1641 8.55669 23.01C8.92772 22.8559 9.25309 22.6389 9.52137 22.3592C9.78965 22.0795 10.0066 21.7542 10.1721 21.3832C10.3376 21.0121 10.4176 20.6125 10.4176 20.1959C10.4176 19.7792 10.3376 19.3853 10.1721 19.0086C10.0066 18.6375 9.78965 18.3122 9.52137 18.0325C9.25309 17.7528 8.93343 17.5358 8.55669 17.3817C8.18566 17.2276 7.78609 17.1477 7.36939 17.1477H5.75398C5.02333 17.1477 4.33264 17.0107 3.68191 16.731C3.03118 16.4513 2.46037 16.0746 1.97517 15.6008C1.48998 15.1213 1.10753 14.5619 0.827829 13.9112C0.548129 13.2604 0.411133 12.5697 0.411133 11.8391C0.411133 11.1084 0.548129 10.4006 0.827829 9.75561C1.10753 9.11629 1.48998 8.55119 1.97517 8.06599C2.46037 7.5808 3.03118 7.19835 3.68191 6.91865C4.33264 6.63895 5.02333 6.50195 5.75398 6.50195H11.8218H11.8275Z" fill="white" stroke="white" stroke-width="1.48" stroke-miterlimit="10"/>
<path d="M20.2757 25.7438C19.5622 25.7438 18.8886 25.6069 18.2607 25.3272C17.6271 25.0475 17.0734 24.6764 16.6053 24.2084C16.1373 23.7403 15.7605 23.1866 15.4865 22.553C15.2068 21.9194 15.0698 21.2458 15.0698 20.5323V12.4609H17.3074V20.5323C17.3074 20.949 17.3873 21.3371 17.5415 21.7025C17.6956 22.0678 17.9125 22.3817 18.1808 22.6557C18.4491 22.924 18.763 23.1352 19.1169 23.295C19.4708 23.4492 19.859 23.5291 20.2757 23.5291C20.6924 23.5291 21.0805 23.4492 21.4458 23.295C21.8112 23.1409 22.1251 22.924 22.3991 22.6557C22.6674 22.3874 22.8786 22.0678 23.0384 21.7025C23.1925 21.3371 23.2725 20.949 23.2725 20.5323V12.4609H25.4872V26.366C25.4872 27.0967 25.3388 27.776 25.042 28.4096C24.7452 29.0432 24.3456 29.5969 23.8319 30.0649C23.3181 30.533 22.7188 30.904 22.0224 31.1723C21.326 31.4406 20.5839 31.5776 19.7848 31.5776V29.3628C20.27 29.3628 20.7266 29.2829 21.149 29.1288C21.5714 28.9747 21.9425 28.7578 22.2564 28.4781C22.5704 28.1984 22.8158 27.8844 22.9985 27.5248C23.1811 27.1709 23.2725 26.7827 23.2725 26.366V24.802C22.8386 25.0988 22.3706 25.3272 21.8683 25.4927C21.3659 25.6582 20.8351 25.7381 20.2814 25.7381L20.2757 25.7438Z" fill="white" stroke="white" stroke-width="1.48" stroke-miterlimit="10"/>
<path d="M34.8544 12.2031C35.7905 12.2031 36.6753 12.3801 37.4972 12.7397C38.3192 13.0936 39.0442 13.5788 39.6606 14.1839C40.2771 14.7889 40.7623 15.5139 41.1162 16.3473C41.4701 17.1806 41.6528 18.0654 41.6528 19.0016V25.5089H39.4152V19.0016C39.4152 18.3794 39.2953 17.7857 39.0613 17.232C38.8272 16.6783 38.5076 16.1931 38.0966 15.7764C37.6913 15.3597 37.2061 15.0344 36.6524 14.8003C36.0987 14.5663 35.4994 14.4464 34.8544 14.4464C34.2093 14.4464 33.6385 14.5663 33.0848 14.8003C32.5311 15.0344 32.0459 15.3597 31.6407 15.7764C31.2354 16.1931 30.9043 16.6783 30.6646 17.232C30.4191 17.7857 30.2992 18.3794 30.2992 19.0016V25.5089H28.0845V19.0016C28.0845 18.0654 28.2614 17.1806 28.621 16.3473C28.9749 15.5139 29.4601 14.7946 30.0766 14.1839C30.6931 13.5788 31.4066 13.0936 32.2229 12.7397C33.0392 12.3858 33.9182 12.2031 34.8544 12.2031Z" fill="white" stroke="white" stroke-width="1.48" stroke-miterlimit="10"/>
<path d="M44.2842 6.45117H46.4989V17.8561L51.8646 12.4904H54.987L48.4797 18.9977L54.987 25.505H51.8646L46.4989 20.1394V25.505H44.2842V6.45117Z" fill="white" stroke="white" stroke-width="1.48" stroke-miterlimit="10"/>
<path d="M61.9566 25.8242C61.0205 25.8242 60.1357 25.6472 59.3138 25.2876C58.4918 24.9337 57.7668 24.4485 57.1504 23.832C56.5339 23.2155 56.0487 22.502 55.6948 21.6858C55.3409 20.8695 55.1582 19.9961 55.1582 19.0543C55.1582 18.1124 55.3352 17.2334 55.6948 16.4C56.0487 15.5666 56.5339 14.8474 57.1504 14.2366C57.7668 13.6315 58.4861 13.1463 59.3138 12.7924C60.1357 12.4385 61.0205 12.2559 61.9566 12.2559C62.8928 12.2559 63.7718 12.4328 64.5995 12.7924C65.4215 13.1463 66.1407 13.6315 66.7458 14.2366C67.3509 14.8417 67.836 15.5666 68.19 16.4C68.5439 17.2334 68.7265 18.1182 68.7265 19.0543V19.4424C68.7265 19.5794 68.7094 19.8135 68.6751 20.1446H57.5556C57.6755 20.6469 57.8753 21.1092 58.155 21.5259C58.4347 21.9426 58.7601 22.3079 59.1425 22.6219C59.525 22.9358 59.9531 23.1756 60.4326 23.3525C60.912 23.5238 61.4201 23.6151 61.9566 23.6151C62.3733 23.6151 62.79 23.5067 63.2067 23.2898C63.6234 23.0728 64.023 22.7817 64.4054 22.4164L65.9695 23.9804C65.3987 24.5341 64.7651 24.9851 64.0801 25.3219C63.3951 25.6586 62.6873 25.8299 61.9566 25.8299V25.8242ZM66.3576 17.9355C66.2206 17.4503 66.0151 16.9936 65.7469 16.5712C65.4786 16.1488 65.1532 15.7835 64.7708 15.4753C64.3883 15.1727 63.9602 14.933 63.4807 14.7617C63.0012 14.5905 62.4932 14.4992 61.9566 14.4992C61.4201 14.4992 60.912 14.5848 60.4326 14.7617C59.9531 14.933 59.525 15.1727 59.1425 15.4753C58.7601 15.7778 58.429 16.1431 58.155 16.5712C57.8753 16.9993 57.6755 17.4503 57.5556 17.9355H66.3576Z" fill="white" stroke="white" stroke-width="1.48" stroke-miterlimit="10"/>
<path d="M110.716 9.75545C110.436 9.11613 110.054 8.55102 109.568 8.06583C109.083 7.58063 108.518 7.19819 107.873 6.91849C107.228 6.63879 106.543 6.50179 105.818 6.50179H99.3222V18.7915C99.3222 19.4365 99.2023 20.0359 98.9569 20.601C98.7114 21.1661 98.3803 21.6627 97.9522 22.0851C97.5241 22.5132 97.0332 22.8443 96.4681 23.0897C95.903 23.3352 95.2979 23.4551 94.6586 23.4551C94.0193 23.4551 93.4142 23.3352 92.8491 23.0897C92.284 22.8443 91.7874 22.5132 91.365 22.0851C90.9369 21.657 90.6058 21.1661 90.3604 20.601C90.1149 20.0359 89.995 19.4365 89.995 18.7915V6.42188H87.7061V18.7915C87.7061 19.7447 87.8887 20.6466 88.254 21.4857C88.6194 22.3305 89.116 23.0612 89.7382 23.6834C90.3661 24.3056 91.0967 24.8022 91.9358 25.1675C92.7749 25.5328 93.6825 25.7155 94.6586 25.7155C95.6347 25.7155 96.5138 25.5328 97.3529 25.1675C98.1006 24.8421 98.7571 24.414 99.3336 23.8832C99.4078 23.8147 99.482 23.7519 99.5562 23.6834C100.178 23.0612 100.675 22.3248 101.04 21.4857C101.406 20.6466 101.588 19.7447 101.588 18.7915L101.6 13.5742V8.79647H105.818C106.235 8.79647 106.629 8.87639 107.005 9.03051C107.376 9.18463 107.702 9.40154 107.97 9.68124C108.238 9.96094 108.455 10.2863 108.621 10.6573C108.786 11.0284 108.866 11.4279 108.866 11.8446C108.866 12.2613 108.786 12.6495 108.621 13.0148C108.455 13.3801 108.238 13.6998 107.97 13.9795C107.702 14.2592 107.382 14.4761 107.005 14.6302C106.634 14.7843 106.235 14.8643 105.818 14.8643H103.364V17.1532H105.818C106.549 17.1532 107.234 17.0162 107.873 16.7365C108.512 16.4568 109.077 16.0801 109.568 15.6063C110.054 15.1268 110.436 14.5674 110.716 13.9167C110.995 13.266 111.132 12.5753 111.132 11.8446C111.132 11.114 110.995 10.4062 110.716 9.76115V9.75545Z" fill="#F2695B" stroke="#F2695B" stroke-width="1.48" stroke-miterlimit="10"/>
<path d="M88.0373 4.0528L84.1443 0L80.2456 4.0528H82.4832V17.6268L84.2756 15.766L86.0622 17.6268V4.0528H88.0373Z" fill="white"/>
<path d="M84.2757 17.5916L80.377 21.6444H82.118C81.3988 23.3626 79.7092 24.567 77.7284 24.567C75.7477 24.567 74.0466 23.3512 73.3331 21.6216L71.1811 23.8649L69.8169 22.4379C70.9186 25.7543 74.0409 28.1461 77.7284 28.1461C81.7013 28.1461 85.0292 25.3605 85.8626 21.6387H88.1744L84.2757 17.5859V17.5916Z" fill="url(#paint0_linear_5011_46979)"/>
<path d="M69.4286 19.8185L71.181 21.6508L72.9334 19.8185H72.9734C72.9734 19.8185 72.9734 19.7899 72.9734 19.7785L75.0626 17.598H73.5271C74.3262 16.091 75.9074 15.0693 77.7283 15.0693C79.709 15.0693 81.4101 16.2851 82.1236 18.009L84.2756 15.7714L85.6398 17.187C84.5381 13.8762 81.4158 11.4902 77.734 11.4902C74.0522 11.4902 70.673 14.076 69.7026 17.6037H67.3052L69.4001 19.7899C69.4001 19.7899 69.4001 19.8127 69.4001 19.8299H69.44L69.4286 19.8185Z" fill="url(#paint1_linear_5011_46979)"/>
</g>
<defs>
<linearGradient id="paint0_linear_5011_46979" x1="69.8169" y1="22.8717" x2="88.1687" y2="22.8717" gradientUnits="userSpaceOnUse">
<stop offset="0.31" stop-color="white"/>
<stop offset="0.41" stop-color="#F79F99"/>
<stop offset="0.54" stop-color="#DD6C65"/>
<stop offset="0.65" stop-color="#CA5E57"/>
<stop offset="0.73" stop-color="#E7665A"/>
<stop offset="0.78" stop-color="#F2695B"/>
<stop offset="1" stop-color="#F2695B"/>
</linearGradient>
<linearGradient id="paint1_linear_5011_46979" x1="78.8528" y1="15.2462" x2="71.4036" y2="21.9362" gradientUnits="userSpaceOnUse">
<stop stop-color="white"/>
<stop offset="0.08" stop-color="#FFD1CC"/>
<stop offset="0.21" stop-color="#FFA297"/>
<stop offset="0.34" stop-color="#E4756F"/>
<stop offset="0.46" stop-color="#C65D57"/>
<stop offset="0.58" stop-color="#DE6459"/>
<stop offset="0.68" stop-color="#ED675A"/>
<stop offset="0.78" stop-color="#F2695B"/>
<stop offset="1" stop-color="#F2695B"/>
</linearGradient>
<clipPath id="clip0_5011_46979">
<rect width="111.555" height="32" fill="white"/>
</clipPath>
</defs>
</svg>
