<?xml version="1.0" encoding="UTF-8" standalone="no"?>
<!DOCTYPE svg PUBLIC "-//W3C//DTD SVG 1.1//EN" "http://www.w3.org/Graphics/SVG/1.1/DTD/svg11.dtd">
<svg width="100%" height="100%" viewBox="0 0 1430 60" version="1.1" xmlns="http://www.w3.org/2000/svg" xmlns:xlink="http://www.w3.org/1999/xlink" xml:space="preserve" xmlns:serif="http://www.serif.com/" style="fill-rule:evenodd;clip-rule:evenodd;stroke-linejoin:round;stroke-miterlimit:2;">
    <g transform="matrix(1,0,0,-1,0,60)">
        <path d="M28.5,54L9.891,55.854L0,52.508L0,0L1430,0L1430,52.508L1409.5,55L1380,58.5L1346,54L1331.5,54L1315.5,48.5L1304,52.5L1276.5,55L1260.5,58L1247,55L1220.5,57L1202,51L1190.5,55L1179,51L1157.5,48.5L1129.5,53L1113,48.5L1085.5,51L1055.5,41L1024.5,47.5L985,51L972.5,47.5L962.5,45.5L954,43L942.5,45.5L930.5,42.5L911.5,42.5L886,47.5L868,51L852,46L832,50.5L816,46L776,56L752,50.5L728.5,54.5L693,47L680.5,43L653.5,43L639.5,38.5L602,44L591,43L576.5,47L554,45.5L525,52.5L493.5,54L481,55.5L460.5,52.5L438,54L416,48L395.5,48L360,52.5L337,51.5L316,43L300,47.5L278.5,43L260,47L241.5,42.5L225.5,38L207,43L193.5,46L180,41.5L159,51L149.5,47L132.5,50L114.5,45L92.5,49.5L79.5,49.5L57.5,56L46.5,53.5L35.5,56L28.5,54Z" style="fill:black;fill-rule:nonzero;"/>
    </g>
</svg>
