<svg width="118" height="32" viewBox="0 0 118 32" fill="none" xmlns="http://www.w3.org/2000/svg">
<g clip-path="url(#clip0_5035_41798)">
<path d="M27.8063 21.9379L27.7894 21.8854L38.2479 12.283V7.65641H21.4692V12.283H31.4914L31.5078 12.3273L21.1514 21.9379V26.5645H38.4163V21.9384L27.8063 21.9379ZM48.7172 7.21618C46.782 7.21618 45.2047 7.50845 43.9857 8.09436C42.85 8.60461 41.8934 9.4453 41.24 10.5074C40.6148 11.5764 40.2222 12.7658 40.0879 13.9978L45.1787 14.7156C45.3631 13.6274 45.7315 12.8565 46.2838 12.4021C46.9119 11.927 47.6859 11.6869 48.4718 11.7235C49.505 11.7235 50.2545 12.0003 50.7203 12.5547C51.182 13.1086 51.4165 13.8758 51.4165 14.8874V15.3915H46.5215C44.0299 15.3915 42.2399 15.9455 41.1512 17.0538C40.0629 18.1617 39.5197 19.6249 39.5215 21.4424C39.5215 23.3038 40.0647 24.6894 41.1516 25.5982C42.2381 26.5065 43.6046 26.9581 45.2507 26.9526C47.2929 26.9526 48.8643 26.248 49.9635 24.8382C50.6127 23.9723 51.0764 22.9812 51.3255 21.927H51.5103L52.212 26.5535H56.8252V14.8371C56.8252 12.4158 56.189 10.5403 54.9163 9.21092C53.6441 7.88063 51.5773 7.21572 48.7172 7.21572V7.21618ZM50.331 21.658C49.5988 22.2704 48.6403 22.575 47.4468 22.575C46.4633 22.575 45.7802 22.4024 45.3973 22.0571C45.2107 21.8938 45.0622 21.6912 44.9624 21.4638C44.8626 21.2364 44.814 20.9898 44.8199 20.7414C44.809 20.5071 44.8458 20.2731 44.928 20.0535C45.0102 19.8339 45.1361 19.6334 45.298 19.4641C45.473 19.2994 45.6795 19.172 45.905 19.0896C46.1304 19.0072 46.3702 18.9715 46.6099 18.9846H51.4247V19.3034C51.4345 19.7537 51.3409 20.2003 51.1512 20.6086C50.9616 21.017 50.681 21.3757 50.331 21.658ZM84.7198 7.65641H79.2697V26.5672H84.7198V7.65641ZM116.899 7.65641C115.359 7.65641 114.146 8.20122 113.258 9.29129C112.621 10.074 112.137 11.2312 111.805 12.762H111.645L110.932 7.65641H106.278V26.5645H111.728V16.8679C111.728 15.6454 112.013 14.7079 112.584 14.0562C113.155 13.4041 114.209 13.078 115.744 13.078H117.813V7.65641H116.899ZM100.869 8.27428C99.5964 7.5153 97.9913 7.13671 96.0543 7.13854C93.0044 7.13854 90.6174 8.00896 88.8939 9.75071C87.17 11.4925 86.3085 13.8936 86.3085 16.9543C86.2645 18.8044 86.6672 20.6379 87.4824 22.2982C88.2285 23.7778 89.3904 25.0059 90.8246 25.8306C92.2685 26.6672 93.9856 27.0864 95.9769 27.0883C97.6986 27.0883 99.137 26.8225 100.291 26.2905C101.377 25.8127 102.322 25.0638 103.038 24.1153C103.718 23.1844 104.223 22.1367 104.529 21.0237L99.8332 19.7053C99.6352 20.4289 99.2546 21.0892 98.7281 21.6224C98.1976 22.1539 97.3088 22.4202 96.0625 22.4202C94.5799 22.4202 93.4747 21.9945 92.7476 21.1429C92.2194 20.5277 91.8883 19.6495 91.7421 18.5111H104.601C104.654 17.979 104.681 17.5329 104.681 17.173V15.9952C104.712 14.4136 104.386 12.8453 103.728 11.4075C103.112 10.0979 102.115 9.00572 100.869 8.27428ZM95.8967 11.6459C98.1065 11.6459 99.3592 12.7364 99.6561 14.918H91.8387C91.9626 14.19 92.2633 13.5038 92.7143 12.92C93.4306 12.0688 94.4915 11.6441 95.8967 11.6459ZM82.0542 0.0350023C81.6442 0.0209159 81.2355 0.0896618 80.8525 0.237152C80.4695 0.384642 80.12 0.607865 79.8248 0.893546C79.534 1.18229 79.3061 1.52834 79.1554 1.90987C79.0047 2.2914 78.9344 2.70012 78.9491 3.11023C78.9343 3.52301 79.0045 3.93441 79.1554 4.31873C79.3063 4.70305 79.5347 5.05202 79.8261 5.34382C80.1174 5.63585 80.4656 5.86449 80.849 6.01543C81.2323 6.16638 81.6426 6.23639 82.0542 6.22109C82.4631 6.23653 82.8708 6.16642 83.2512 6.01523C83.6317 5.86404 83.9766 5.63507 84.264 5.34291C84.5493 5.04778 84.772 4.69777 84.9187 4.31397C85.0655 3.93017 85.1332 3.52053 85.1177 3.10978C85.1368 2.70159 85.0706 2.29391 84.9235 1.91283C84.7765 1.53175 84.5516 1.18567 84.2635 0.896743C83.9755 0.60757 83.6305 0.381821 83.2505 0.233915C82.8706 0.0860087 82.464 0.0191954 82.0569 0.0377423L82.0542 0.0350023ZM70.7948 7.13854C68.9383 7.13854 67.4466 7.72308 66.3196 8.89216C65.485 9.75801 64.873 11.0513 64.4827 12.7707H64.3088L63.5957 7.66508H58.9412V32.0002H64.3912V21.9767H64.5902C64.7563 22.6452 64.9896 23.295 65.2864 23.9162C65.7475 24.9283 66.5037 25.7763 67.4552 26.3485C68.4415 26.8885 69.5527 27.1571 70.6759 27.1271C72.9577 27.1271 74.6948 26.2357 75.8883 24.4537C77.0818 22.6713 77.6787 20.1843 77.6787 16.9926C77.6787 13.9101 77.1009 11.497 75.9466 9.75345C74.7918 8.01033 73.0747 7.13854 70.7948 7.13854ZM71.3471 20.841C70.7114 21.7644 69.7174 22.2261 68.3637 22.2261C67.8056 22.2519 67.2494 22.144 66.7412 21.9113C66.233 21.6786 65.7874 21.3278 65.4412 20.888C64.7355 19.9998 64.3839 18.7832 64.3862 17.2392V16.8794C64.3862 15.3111 64.7377 14.1106 65.4412 13.2776C66.1443 12.4446 67.1192 12.0327 68.3637 12.0418C69.7416 12.0418 70.742 12.4802 71.3667 13.358C71.991 14.2352 72.3029 15.4587 72.3029 17.0287C72.307 18.6522 71.9901 19.9231 71.3526 20.841H71.3471Z" fill="#201515"/>
<path d="M19.0435 21.9375H0.1875V26.57H19.0435V21.9375Z" fill="#FF4F00"/>
</g>
<defs>
<clipPath id="clip0_5035_41798">
<rect width="118" height="32" fill="white"/>
</clipPath>
</defs>
</svg>
